{"title":"Kirkit (2009) Web Rip - x264 - (Upmix) - [1CD] - IcTv 7th Annive","uid":12112465,"size":730019700,"categoryP":"video","categoryS":"movies","magnet":"?xt=urn:btih:df437341871254961f6e8401868443c03544dac7&amp;dn=Kirkit+%282009%29+Web+Rip+-+x264+-+%28Upmix%29+-+%5B1CD%5D+-+IcTv+7th+Annive&amp;tr=udp%3A%2F%2Ftracker.openbittorrent.com%3A80&amp;tr=udp%3A%2F%2Fopen.demonii.com%3A1337&amp;tr=udp%3A%2F%2Ftracker.coppersurfer.tk%3A6969&amp;tr=udp%3A%2F%2Fexodus.desync.com%3A6969","seeders":0,"leechers":2,"uploader":"SS132203","files":2,"time":1436611319,"description":"Kirkit (2009) Web Rip - x264 - (Upmix) - [1CD] - IcTv 7th Anniversary -={SPARROW}=-\n &lt;a href=&quot;\nhttp://imgsparrow.co/image/cW&quot; rel=&quot;nofollow&quot; target=&quot;_NEW&quot;&gt;\nhttp://imgsparrow.co/image/cW&lt;/a&gt;\n &lt;a href=&quot;\nhttp://imgsparrow.co/image/KZ&quot; rel=&quot;nofollow&quot; target=&quot;_NEW&quot;&gt;\nhttp://imgsparrow.co/image/KZ&lt;/a&gt;\n &lt;a href=&quot;\nhttp://imgsparrow.co/image/9b&quot; rel=&quot;nofollow&quot; target=&quot;_NEW&quot;&gt;\nhttp://imgsparrow.co/image/9b&lt;/a&gt;\n\nInfo : - \n\nFormat                      : Matroska\nFormat version              : Version 2\nFile size                   : 696 MiB\nDuration                    : 2h 32mn\nOverall bit rate            : 637 Kbps\nEncoded date                : UTC 2015-07-10 07:49:53\nWriting application         : mkvmerge v7.7.0 ('Six Voices') 32bit built on Feb 28 2015 23:23:00\nWriting library             : libebml v1.3.1 + libmatroska v1.4.2\nDURATION                    : 02:32:48.608000000\nNUMBER_OF_FRAMES            : 286519\nNUMBER_OF_BYTES             : 440093184\n_STATISTICS_WRITING_APP     : mkvmerge v7.7.0 ('Six Voices') 32bit built on Feb 28 2015 23:23:00\n_STATISTICS_WRITING_DATE_UT : 2015-07-10 07:49:53\n_STATISTICS_TAGS            : BPS DURATION NUMBER_OF_FRAMES NUMBER_OF_BYTES\n\nVideo\nID                          : 1\nFormat                      : AVC\nFormat/Info                 : Advanced Video Codec\nFormat profile              : High@L3\nFormat settings, CABAC      : Yes\nFormat settings, ReFrames   : 4 frames\nCodec ID                    : V_MPEG4/ISO/AVC\nDuration                    : 2h 32mn\nBit rate                    : 251 Kbps\nWidth                       : 640 pixels\nHeight                      : 272 pixels\nDisplay aspect ratio        : 2.35:1\nFrame rate mode             : Constant\nFrame rate                  : 29.970 fps\nColor space                 : YUV\nChroma subsampling          : 4:2:0\nBit depth                   : 8 bits\nScan type                   : Progressive\nBits/(Pixel*Frame)          : 0.048\nStream size                 : 263 MiB (38%)\nWriting library             : x264 core 146 r2538 121396c\nEncoding settings           : cabac=1 / ref=3 / deblock=1:0:0 / analyse=0x3:0x113 / me=hex / subme=7 / psy=1 / psy_rd=1.00:0.00 / mixed_ref=1 / me_range=16 / chroma_me=1 / trellis=1 / 8x8dct=1 / cqm=0 / deadzone=21,11 / fast_pskip=1 / chroma_qp_offset=-2 / threads=12 / lookahead_threads=2 / sliced_threads=0 / nr=0 / decimate=1 / interlaced=0 / bluray_compat=0 / constrained_intra=0 / bframes=3 / b_pyramid=2 / b_adapt=1 / b_bias=0 / direct=1 / weightb=1 / open_gop=0 / weightp=2 / keyint=300 / keyint_min=29 / scenecut=40 / intra_refresh=0 / rc_lookahead=40 / rc=2pass / mbtree=1 / bitrate=251 / ratetol=1.0 / qcomp=0.60 / qpmin=0 / qpmax=69 / qpstep=4 / cplxblur=20.0 / qblur=0.5 / ip_ratio=1.40 / aq=1:1.00\nDefault                     : Yes\nForced                      : No\n\nAudio\nID                          : 2\nFormat                      : AC-3\nFormat/Info                 : Audio Coding 3\nMode extension              : CM (complete main)\nFormat settings, Endianness : Big\nCodec ID                    : A_AC3\nDuration                    : 2h 32mn\nBit rate mode               : Constant\nBit rate                    : 384 Kbps\nChannel(s)                  : 6 channels\nChannel positions           : Front: L C R, Side: L R, LFE\nSampling rate               : 48.0 KHz\nCompression mode            : Lossy\nStream size                 : 420 MiB (60%)\nDefault                     : Yes\nForced                      : No\n\nScreens : - \n &lt;a href=&quot;\nhttp://imgsparrow.co/image/Ka&quot; rel=&quot;nofollow&quot; target=&quot;_NEW&quot;&gt;\nhttp://imgsparrow.co/image/Ka&lt;/a&gt; &lt;a href=&quot;\nhttp://imgsparrow.co/image/Kf&quot; rel=&quot;nofollow&quot; target=&quot;_NEW&quot;&gt;\nhttp://imgsparrow.co/image/Kf&lt;/a&gt; &lt;a href=&quot;\nhttp://imgsparrow.co/image/KI&quot; rel=&quot;nofollow&quot; target=&quot;_NEW&quot;&gt;\nhttp://imgsparrow.co/image/KI&lt;/a&gt; &lt;a href=&quot;\nhttp://imgsparrow.co/image/KP&quot; rel=&quot;nofollow&quot; target=&quot;_NEW&quot;&gt;\nhttp://imgsparrow.co/image/KP&lt;/a&gt; &lt;a href=&quot;\nhttp://imgsparrow.co/image/KW&quot; rel=&quot;nofollow&quot; target=&quot;_NEW&quot;&gt;\nhttp://imgsparrow.co/image/KW&lt;/a&gt; &lt;a href=&quot;\nhttp://imgsparrow.co/image/KX&quot; rel=&quot;nofollow&quot; target=&quot;_NEW&quot;&gt;\nhttp://imgsparrow.co/image/KX&lt;/a&gt; &lt;a href=&quot;\nhttp://imgsparrow.co/image/KY&quot; rel=&quot;nofollow&quot; target=&quot;_NEW&quot;&gt;\nhttp://imgsparrow.co/image/KY&lt;/a&gt; &lt;a href=&quot;\nhttp://imgsparrow.co/image/Kc&quot; rel=&quot;nofollow&quot; target=&quot;_NEW&quot;&gt;\nhttp://imgsparrow.co/image/Kc&lt;/a&gt; &lt;a href=&quot;\nhttp://imgsparrow.co/image/Kd&quot; rel=&quot;nofollow&quot; target=&quot;_NEW&quot;&gt;\nhttp://imgsparrow.co/image/Kd&lt;/a&gt; &lt;a href=&quot;\nhttp://imgsparrow.co/image/Ko&quot; rel=&quot;nofollow&quot; target=&quot;_NEW&quot;&gt;\nhttp://imgsparrow.co/image/Ko&lt;/a&gt;\n &lt;a href=&quot;\nhttp://imgsparrow.co/image/N2&quot; rel=&quot;nofollow&quot; target=&quot;_NEW&quot;&gt;\nhttp://imgsparrow.co/image/N2&lt;/a&gt;","torrent":{"xt":"urn:btih:df437341871254961f6e8401868443c03544dac7","amp;dn":"Kirkit+%282009%29+Web+Rip+-+x264+-+%28Upmix%29+-+%5B1CD%5D+-+IcTv+7th+Annive","amp;tr":["udp%3A%2F%2Ftracker.openbittorrent.com%3A80","udp%3A%2F%2Fopen.demonii.com%3A1337","udp%3A%2F%2Ftracker.coppersurfer.tk%3A6969","udp%3A%2F%2Fexodus.desync.com%3A6969"],"infoHash":"df437341871254961f6e8401868443c03544dac7","infoHashBuffer":{"type":"Buffer","data":[223,67,115,65,135,18,84,150,31,110,132,1,134,132,67,192,53,68,218,199]},"announce":[],"urlList":[]}}